<svg xmlns="http://www.w3.org/2000/svg" viewBox="0 0 467.85 240.6"><defs><style>.cls-1{fill:#263238;}.cls-2{fill:#ebebeb;}.cls-3{fill:#dbdbdb;}.cls-4{fill:#fff;}.cls-5{fill:#37474f;}.cls-6{fill:#455a64;}.cls-7{fill:#ffc727;}.cls-8{opacity:0.2;}.cls-9{fill:#ad6359;}</style></defs><title>Asset 1</title><g id="Layer_2" data-name="Layer 2"><g id="Character"><polygon class="cls-1" points="336.9 148.82 136.41 148.82 199.36 1.88 399.86 1.88 336.9 148.82"/><polygon class="cls-2" points="200.84 5.01 398.52 5.01 336.9 148.82 139.97 148.82 200.84 5.01"/><path class="cls-3" d="M200.84,5a121.05,121.05,0,0,1-4.7,41.06c-6.45,21.1-38.41,63.35-44.63,91.85L140,148.82H336.9L398.52,5Z"/><path class="cls-3" d="M200.84,5a189.68,189.68,0,0,1-5.42,35,87.08,87.08,0,0,1-6.09,16.69c-2.58,5.34-5.4,10.54-8.24,15.72-5.75,10.33-11.56,20.61-16.89,31.14-2.69,5.26-5.17,10.62-7.5,16a172.27,172.27,0,0,0-6.07,16.64,157.93,157.93,0,0,1,5.61-16.82c2.25-5.47,4.66-10.88,7.27-16.19,5.2-10.63,11-20.93,16.71-31.28,2.85-5.16,5.7-10.34,8.29-15.63a92.27,92.27,0,0,0,6.17-16.5,169.26,169.26,0,0,0,3.79-17.27C199.48,16.75,200.25,10.89,200.84,5Z"/><path class="cls-3" d="M198.82,13.54a143.67,143.67,0,0,1-8.53,33.23,156.61,156.61,0,0,1-7.13,15.66c-2.6,5.11-5.3,10.15-8,15.21C169.77,87.72,164.55,97.9,160,108.38c-1.18,2.6-2.22,5.26-3.32,7.9s-2.08,5.32-3,8c-2,5.36-3.55,10.87-5.08,16.38a194.14,194.14,0,0,1,10.69-32.62c4.44-10.58,9.69-20.78,15-30.91,2.7-5,5.43-10.07,8-15.16s5.1-10.22,7.23-15.52a158.66,158.66,0,0,0,5.5-16.22A140.37,140.37,0,0,0,198.82,13.54Z"/><path class="cls-4" d="M263.39,157H455.94L390.77,5H200.84s-.75,23,11.85,56.29C224.56,92.67,246.52,111.52,263.39,157Z"/><path class="cls-4" d="M262.26,157c-2.74-6.4-5.73-12.69-9-18.79s-6.94-12-10.7-17.88c-7.5-11.7-15.91-22.8-23.23-34.72A139.81,139.81,0,0,1,209.64,67,97.26,97.26,0,0,1,204,46.7a186.81,186.81,0,0,1-2.6-20.79A205.14,205.14,0,0,1,200.84,5a354.54,354.54,0,0,0,5,41.33c.66,3.39,1.47,6.76,2.34,10.09a82.51,82.51,0,0,0,3.17,9.81,136.45,136.45,0,0,0,9.42,18.46c7.14,11.87,15.33,23.17,22.69,35A215.54,215.54,0,0,1,262.26,157Z"/><path class="cls-2" d="M202.72,9.4c.94,5.9,2.13,11.74,3.53,17.53s3,11.54,4.81,17.21A179.16,179.16,0,0,0,225,77q4.34,7.81,8.8,15.57L242.72,108c3,5.18,5.88,10.4,8.6,15.71s5.2,10.76,7.42,16.29a292.27,292.27,0,0,0-16.68-31.61c-6.09-10.26-12.13-20.55-18-31a174.41,174.41,0,0,1-13.76-33.07A211.31,211.31,0,0,1,202.72,9.4Z"/><polygon class="cls-5" points="267.36 160.11 467.85 160.11 399.99 1.88 199.49 1.88 267.36 160.11"/><polygon class="cls-6" points="396.77 160.11 440.88 160.11 373.02 1.88 328.91 1.88 396.77 160.11"/><polygon class="cls-6" points="288.2 160.11 304.18 160.11 236.32 1.88 220.34 1.88 288.2 160.11"/><polygon class="cls-5" points="200.84 5.01 401.33 5.01 403.46 0 197.27 0 200.84 5.01"/><rect class="cls-5" x="365.5" y="202.78" width="9.25" height="18.67"/><rect class="cls-5" x="378.18" y="202.78" width="3.86" height="18.67"/><rect class="cls-7" x="357.08" y="202.78" width="94.64" height="18.67"/><rect class="cls-5" x="433.87" y="202.78" width="9.25" height="18.67"/><rect class="cls-6" x="342.08" y="188.85" width="65.65" height="13.93"/><rect class="cls-6" x="407.72" y="188.85" width="28.32" height="13.93"/><rect class="cls-4" x="342.08" y="190.3" width="65.65" height="11.04"/><path class="cls-3" d="M346.33,192.57q7.67-.12,15.35-.17l15.35,0,15.34,0q7.68,0,15.35.17-7.67.12-15.35.16l-15.34.05-15.35-.05Q354,192.69,346.33,192.57Z"/><path class="cls-3" d="M346.33,194.73q7.67-.1,15.35-.16l15.35,0,15.34,0q7.68,0,15.35.16-7.67.12-15.35.17L377,195l-15.35,0Q354,194.86,346.33,194.73Z"/><path class="cls-3" d="M346.33,196.9q7.67-.12,15.35-.16l15.35-.05,15.34.05q7.68,0,15.35.16-7.67.12-15.35.16l-15.34.05-15.35-.05Q354,197,346.33,196.9Z"/><path class="cls-3" d="M346.33,199.07q7.67-.12,15.35-.17l15.35-.05,15.34.05q7.68,0,15.35.17-7.67.1-15.35.16l-15.34.05-15.35-.05Q354,199.19,346.33,199.07Z"/><rect class="cls-1" x="375.22" y="221.45" width="55" height="19.15" transform="translate(805.44 462.06) rotate(180)"/><rect class="cls-1" x="351.49" y="221.45" width="23.73" height="19.15" transform="translate(726.72 462.06) rotate(180)"/><rect class="cls-4" x="375.22" y="223.44" width="55" height="15.17" transform="translate(805.44 462.06) rotate(180)"/><path class="cls-3" d="M426.66,235.49q-6.44.12-12.86.17l-12.86.05-12.86-.05q-6.42,0-12.86-.17,6.43-.12,12.86-.16l12.86-.05,12.86.05Q420.23,235.38,426.66,235.49Z"/><path class="cls-3" d="M426.66,232.52q-6.44.1-12.86.16l-12.86,0-12.86,0q-6.42,0-12.86-.16,6.43-.12,12.86-.17l12.86,0,12.86,0Q420.23,232.4,426.66,232.52Z"/><path class="cls-3" d="M426.66,229.54q-6.44.12-12.86.16l-12.86.05-12.86-.05q-6.42,0-12.86-.16,6.43-.12,12.86-.16l12.86,0,12.86,0Q420.23,229.43,426.66,229.54Z"/><path class="cls-3" d="M426.66,226.56q-6.44.12-12.86.17l-12.86.05-12.86-.05q-6.42,0-12.86-.17,6.43-.12,12.86-.16l12.86-.05,12.86.05Q420.23,226.45,426.66,226.56Z"/><rect class="cls-7" x="354.12" y="175.86" width="86.49" height="13.05"/><rect class="cls-8" x="354.12" y="175.86" width="86.49" height="13.05"/><rect class="cls-4" x="362.25" y="178.52" width="33.27" height="7.83"/><rect class="cls-7" x="371.55" y="153.64" width="65.7" height="22.16"/><rect class="cls-1" x="424.16" y="153.64" width="6.12" height="22.16"/><rect class="cls-1" x="417.77" y="153.64" width="2.37" height="22.16"/><polygon class="cls-7" points="112.37 212.21 35.68 192.02 0 211.14 75.02 236.14 112.37 212.21"/><path class="cls-4" d="M107.62,211.87l-34.2,22L3.11,210.48,37.6,192.16s21,2.77,22,3.07,10.26,4.16,10.26,4.16,13,2.26,13.91,2.56S107.62,211.87,107.62,211.87Z"/><path class="cls-3" d="M69.88,199.39q-4,2.91-8.12,5.74l-8.21,5.63-8.27,5.54q-4.14,2.74-8.34,5.43,4-2.91,8.13-5.75l8.2-5.63,8.27-5.54C64.3,203,67.09,201.17,69.88,199.39Z"/><path class="cls-3" d="M100.08,211.67q-3.73-1.47-7.46-3l-7.43-3.09-1.85-.78c-.3-.12-.62-.26-.91-.36s-.65-.16-1-.24l-3.91-.91q-3.9-.94-7.8-2c2.64.5,5.27,1,7.9,1.58l3.94.86c.33.07.65.13,1,.22s.64.24,1,.37l1.87.76c2.46,1,4.93,2.1,7.38,3.2S97.66,210.52,100.08,211.67Z"/><path class="cls-3" d="M97.7,213.07q-3.75-1.47-7.46-3L82.81,207,81,206.19l-.92-.36c-.31-.09-.65-.15-1-.23l-3.91-.92c-2.6-.62-5.2-1.28-7.8-2q4,.75,7.9,1.59l3.93.85c.33.08.66.13,1,.23s.64.24,1,.36l1.86.76c2.47,1.06,4.94,2.11,7.39,3.2S95.28,211.92,97.7,213.07Z"/><path class="cls-3" d="M95.32,214.47c-2.44-.95-4.88-1.93-7.3-2.93l-7.25-3L79,207.75a11.25,11.25,0,0,0-1.81-.66l-3.82-.91q-3.82-.92-7.63-1.9,3.87.71,7.72,1.52c1.28.26,2.56.55,3.84.85a11.72,11.72,0,0,1,1.89.66l1.82.75c2.41,1,4.82,2.06,7.21,3.13S93,213.35,95.32,214.47Z"/><path class="cls-3" d="M92.94,215.88q-3.61-1.42-7.2-2.89l-7.15-3c-1.19-.47-2.39-1-3.56-1.43l-3.76-.91c-2.51-.6-5-1.22-7.52-1.88,2.54.47,5.08,1,7.61,1.49,1.27.27,2.52.55,3.79.85s2.43.94,3.63,1.43c2.38,1,4.76,2,7.11,3.09S90.6,214.77,92.94,215.88Z"/><path class="cls-3" d="M90.55,217.28c-2.39-.94-4.79-1.89-7.16-2.88l-7.13-3c-1.18-.48-2.38-1-3.55-1.44s-2.5-.6-3.74-.91q-3.77-.9-7.5-1.87c2.54.46,5.06.95,7.58,1.48,1.27.27,2.52.55,3.78.85s2.42.94,3.62,1.43c2.37,1,4.74,2,7.08,3.09S88.23,216.18,90.55,217.28Z"/><path class="cls-3" d="M88.17,218.69c-2.39-.94-4.77-1.89-7.14-2.88l-7.11-3c-1.18-.48-2.37-1-3.53-1.44s-2.49-.6-3.73-.91c-2.5-.6-5-1.21-7.48-1.86,2.53.45,5.05,1,7.56,1.47,1.26.27,2.51.54,3.77.85s2.41.94,3.6,1.44c2.36,1,4.72,2,7.06,3.07S85.85,217.59,88.17,218.69Z"/><path class="cls-3" d="M85.79,220.09c-2.36-.93-4.71-1.86-7.05-2.83l-7-2.93c-1.16-.47-2.33-1-3.49-1.44s-2.44-.61-3.66-.91c-2.46-.6-4.92-1.21-7.38-1.85,2.5.44,5,.93,7.47,1.45,1.24.28,2.46.51,3.72.87s2.36.93,3.53,1.43c2.33,1,4.66,2,7,3S83.5,219,85.79,220.09Z"/><path class="cls-3" d="M83.4,221.49c-2.35-.92-4.71-1.86-7.05-2.83l-7-2.92c-1.17-.48-2.34-1-3.49-1.45s-2.45-.6-3.67-.91c-2.46-.6-4.92-1.2-7.37-1.85,2.5.45,5,.93,7.46,1.45,1.25.28,2.47.51,3.72.87s2.37.94,3.54,1.43c2.33,1,4.66,2,7,3S81.11,220.41,83.4,221.49Z"/><path class="cls-3" d="M81.43,223.11c-2.39-1-4.78-1.91-7.15-2.9l-7.12-3-3.54-1.49c-1.17-.38-2.48-.62-3.71-.94q-3.75-.9-7.48-1.87,3.8.67,7.57,1.47c1.26.29,2.5.5,3.78.91s2.39,1,3.58,1.46c2.35,1,4.72,2,7.06,3.1S79.1,222,81.43,223.11Z"/><path class="cls-3" d="M79,224.56c-2.38-.95-4.76-1.91-7.13-2.9l-7.08-3-3.54-1.49c-1.16-.4-2.46-.63-3.69-1q-3.74-.9-7.47-1.87,3.79.67,7.56,1.47c1.26.3,2.49.49,3.77.91s2.38,1,3.56,1.48c2.35,1,4.71,2,7,3.1S76.72,223.46,79,224.56Z"/><path class="cls-3" d="M76.64,226.14c-2.3-.95-4.61-1.9-6.9-2.89s-4.57-2-6.87-3l-3.43-1.48a8,8,0,0,0-1.73-.58l-1.82-.43c-2.42-.6-4.84-1.2-7.25-1.84,2.46.43,4.9.91,7.35,1.42l1.82.41c.31.08.61.14.92.24s.6.22.89.34c1.16.48,2.31,1,3.45,1.48,2.27,1,4.56,2,6.82,3.07S74.4,225,76.64,226.14Z"/><path class="cls-3" d="M74.27,227.44c-2.35-.86-4.69-1.72-7-2.62s-4.65-1.81-7-2.7c-1.16-.43-2.33-.92-3.48-1.31l-3.59-1.06c-2.39-.73-4.78-1.48-7.15-2.27,2.43.58,4.85,1.22,7.26,1.86l3.61,1c1.22.4,2.36.86,3.53,1.32,2.32.94,4.65,1.84,6.95,2.82S72,226.43,74.27,227.44Z"/><path class="cls-3" d="M39.83,216.05c-2.24-.77-4.44-1.62-6.64-2.49l-1.65-.63a11.09,11.09,0,0,0-1.66-.53l-3.42-.94-6.82-1.91c-2.27-.64-4.53-1.33-6.8-2,2.29.56,4.59,1.11,6.88,1.7L26.58,211,30,212a14.07,14.07,0,0,1,1.72.52c.56.2,1.1.43,1.65.66C35.56,214,37.71,215,39.83,216.05Z"/><path class="cls-3" d="M42.14,214.24q-3.3-1-6.54-2.08c-1.08-.35-2.16-.74-3.24-1.06l-3.3-.93-6.59-1.9c-2.2-.63-4.38-1.32-6.57-2,2.21.56,4.44,1.09,6.65,1.68l6.62,1.77a63.74,63.74,0,0,1,6.58,2C37.91,212.49,40,213.34,42.14,214.24Z"/><path class="cls-3" d="M44.37,212.63c-2.18-.64-4.35-1.31-6.5-2l-3.22-1.07-3.29-.83L24.77,207c-2.2-.56-4.39-1.18-6.58-1.77,2.22.5,4.44,1,6.65,1.48l6.63,1.56,3.32.8c1.1.33,2.16.73,3.23,1.11C40.16,210.91,42.27,211.75,44.37,212.63Z"/><path class="cls-3" d="M46.28,211.44c-2.16-.76-4.26-1.67-6.37-2.51a9.51,9.51,0,0,0-1.58-.54L36.66,208l-3.34-.74q-6.67-1.5-13.34-3.08,6.72,1.26,13.43,2.66l3.35.71,1.67.36a8.29,8.29,0,0,1,1.66.55A65,65,0,0,1,46.28,211.44Z"/><path class="cls-3" d="M48.37,210c-2.16-.76-4.26-1.67-6.37-2.51a9.21,9.21,0,0,0-1.58-.54l-1.67-.38-3.34-.74q-6.67-1.48-13.34-3.08Q28.81,204,35.5,205.4l3.35.71,1.67.37a9,9,0,0,1,1.66.54A67.6,67.6,0,0,1,48.37,210Z"/><path class="cls-3" d="M50.46,208.54c-2.16-.76-4.26-1.67-6.37-2.51a8.43,8.43,0,0,0-1.58-.54l-1.67-.38-3.34-.74q-6.68-1.5-13.34-3.08,6.73,1.26,13.43,2.66l3.35.71,1.68.37a8.71,8.71,0,0,1,1.66.54A63.68,63.68,0,0,1,50.46,208.54Z"/><path class="cls-3" d="M52.55,207.08c-2.16-.76-4.26-1.67-6.37-2.51A9.21,9.21,0,0,0,44.6,204l-1.67-.38-3.34-.73q-6.68-1.5-13.34-3.08,6.74,1.26,13.43,2.65l3.35.72,1.68.36a8.73,8.73,0,0,1,1.66.55A63.69,63.69,0,0,1,52.55,207.08Z"/><path class="cls-3" d="M55.24,205.91c-2.15-.76-4.25-1.67-6.36-2.51a10.53,10.53,0,0,0-1.58-.54l-1.67-.37-3.34-.74q-6.67-1.5-13.34-3.08,6.72,1.26,13.43,2.66l3.35.71,1.67.36a9,9,0,0,1,1.66.55A63.69,63.69,0,0,1,55.24,205.91Z"/><path class="cls-3" d="M57.87,204.76c-2.16-.76-4.26-1.67-6.37-2.51a9.21,9.21,0,0,0-1.58-.54l-1.67-.38-3.34-.74q-6.67-1.49-13.34-3.08,6.74,1.26,13.43,2.66l3.35.71,1.68.37a9.47,9.47,0,0,1,1.66.54A66.19,66.19,0,0,1,57.87,204.76Z"/><path class="cls-3" d="M60,203.31c-2.16-.76-4.25-1.67-6.36-2.51a8.58,8.58,0,0,0-1.57-.54l-1.67-.35L47,199.23q-6.69-1.36-13.37-2.83,6.74,1.14,13.45,2.41l3.36.65,1.68.34a8.48,8.48,0,0,1,1.66.54A67.24,67.24,0,0,1,60,203.31Z"/><path class="cls-3" d="M62.05,201.85c-2.15-.76-4.24-1.66-6.35-2.5a8.54,8.54,0,0,0-1.57-.53l-1.67-.32-3.35-.62q-6.72-1.23-13.41-2.54,6.75,1,13.48,2.12l3.37.59,1.68.3a8.27,8.27,0,0,1,1.66.54A67,67,0,0,1,62.05,201.85Z"/><path class="cls-3" d="M64.14,200.4c-2.15-.76-4.23-1.66-6.33-2.5a7.52,7.52,0,0,0-1.56-.52l-1.68-.28-3.36-.5c-4.49-.68-9-1.36-13.47-2.08,4.52.49,9,1,13.53,1.65l3.37.48,1.69.26a7.34,7.34,0,0,1,1.66.54A63.1,63.1,0,0,1,64.14,200.4Z"/><path class="cls-3" d="M71.84,229.46c-2.4-.8-4.79-1.6-7.17-2.44l-7.13-2.55c-1.19-.41-2.38-.87-3.55-1.27l-3.62-1.14c-2.4-.78-4.79-1.58-7.18-2.42q3.68,1,7.3,2l3.63,1.08c1.22.41,2.4.82,3.58,1.26,2.37.89,4.74,1.74,7.1,2.66S69.5,228.51,71.84,229.46Z"/><path class="cls-3" d="M38.1,217.83c-2.42-.75-4.84-1.51-7.24-2.3l-7.21-2.39-3.59-1.2-3.65-1.07q-3.64-1.1-7.25-2.28,3.69.9,7.36,1.88l3.66,1c1.23.38,2.42.77,3.62,1.18,2.4.84,4.8,1.65,7.18,2.51S35.74,216.92,38.1,217.83Z"/><path class="cls-9" d="M410,80.07c-2-1.48-67.73-21.86-70.72-21.06-.33.1-1,3.05-4,10.38-.14.35-31.39,38.23-31.39,38.23l42.77,22.58L371,95.78s30.53-5.79,33.73-7S412,81.55,410,80.07Z"/><path class="cls-7" d="M410,80.07c-2-1.48-67.73-21.86-70.72-21.06-.33.1-1,3.05-4,10.38-.14.35-4.42,5.31-6.51,8,2.72,2.34,29,20.87,36.17,27L371,95.78s30.53-5.79,33.73-7S412,81.55,410,80.07Z"/><path class="cls-4" d="M351.75,65.4a9.49,9.49,0,0,1-1.27,2.09,10.23,10.23,0,0,1-3.76,3.05,9.67,9.67,0,0,1-4.8.87,11.55,11.55,0,0,1-4.64-1.48c-.08,0,0-.16.07-.12a10.05,10.05,0,0,0,9.08-.16,9.88,9.88,0,0,0,3.37-2.89,10.69,10.69,0,0,0,1.09-1.88,9.72,9.72,0,0,0,.39-1c.11-.36.14-.65.48-.85a.35.35,0,0,1,.47.14C352.6,63.72,352,64.85,351.75,65.4Z"/><path class="cls-4" d="M396.14,90.73a7.44,7.44,0,0,1-3.55-2.79,19.89,19.89,0,0,1-3.67-8.75,22.52,22.52,0,0,1-.21-2.31,8,8,0,0,1,.14-2.35.14.14,0,0,1,.27,0,20.15,20.15,0,0,1,.18,2.07c.09.77.21,1.53.37,2.29A25,25,0,0,0,391,83.21a14.58,14.58,0,0,0,5.4,7A.31.31,0,0,1,396.14,90.73Z"/><path class="cls-4" d="M364.93,96.48c-8-5.77-15.93-11.58-24-17.27-2.28-1.61-4.54-3.24-6.85-4.82-.07,0,0-.16.09-.11a273.78,273.78,0,0,1,24.48,16.58c2.22,1.71,4.37,3.5,6.51,5.3A.2.2,0,0,1,364.93,96.48Z"/><path class="cls-4" d="M334.85,75.67a.38.38,0,0,1-.12.16l-.18.12-.34.24c-.24.16-.49.31-.74.46-.5.28-1,.54-1.52.79a.08.08,0,0,1-.07-.13c.48-.29.95-.61,1.42-.93.22-.16.45-.31.68-.46l.36-.25a.77.77,0,0,1,.37-.19A.13.13,0,0,1,334.85,75.67Z"/><path class="cls-4" d="M338.58,78.42a.61.61,0,0,1-.12.16l-.18.12-.34.23c-.25.16-.49.32-.75.46-.5.29-1,.54-1.52.79-.07,0-.13-.08-.06-.12q.72-.45,1.41-.93l.68-.47.37-.25a1,1,0,0,1,.36-.19C338.53,78.21,338.63,78.33,338.58,78.42Z"/><path class="cls-4" d="M342.3,81.16a.46.46,0,0,1-.11.16l-.18.13-.35.23c-.24.16-.49.32-.74.46-.5.28-1,.54-1.52.79-.07,0-.14-.08-.07-.12.48-.3.95-.61,1.42-.94l.68-.46.36-.25a1,1,0,0,1,.37-.19A.13.13,0,0,1,342.3,81.16Z"/><path class="cls-4" d="M346,83.91a.38.38,0,0,1-.12.16l-.18.13-.34.23-.75.46c-.49.28-1,.54-1.51.79a.07.07,0,0,1-.07-.13c.48-.29.95-.61,1.41-.93l.69-.46.36-.25a.87.87,0,0,1,.37-.19A.14.14,0,0,1,346,83.91Z"/><path class="cls-4" d="M349.75,86.66a.57.57,0,0,1-.11.16l-.18.12-.35.23c-.24.17-.49.32-.74.47-.5.28-1,.54-1.52.78-.07,0-.14-.08-.07-.12.48-.3,1-.61,1.42-.93l.68-.47.36-.25a.85.85,0,0,1,.37-.18A.13.13,0,0,1,349.75,86.66Z"/><path class="cls-4" d="M353.48,89.41a.35.35,0,0,1-.12.15l-.18.13-.34.23c-.25.16-.49.32-.75.46-.49.28-1,.54-1.51.79-.08,0-.14-.08-.07-.12.48-.3.95-.61,1.41-.94l.69-.46.36-.25a1,1,0,0,1,.37-.19A.15.15,0,0,1,353.48,89.41Z"/><path class="cls-4" d="M357.21,92.15a.67.67,0,0,1-.12.16l-.18.13-.35.23c-.24.16-.49.31-.74.46-.5.28-1,.54-1.52.79a.08.08,0,0,1-.07-.13c.48-.29.95-.61,1.42-.93.22-.16.45-.31.68-.46l.36-.25a.87.87,0,0,1,.37-.19A.14.14,0,0,1,357.21,92.15Z"/><path class="cls-4" d="M360.93,94.9a.45.45,0,0,1-.12.16l-.18.12-.34.23c-.25.17-.49.32-.75.47-.49.28-1,.54-1.51.78-.07,0-.14-.08-.07-.12q.72-.45,1.41-.93l.69-.47.36-.24a.77.77,0,0,1,.37-.19A.14.14,0,0,1,360.93,94.9Z"/><path class="cls-4" d="M364.66,97.65a.61.61,0,0,1-.12.15l-.18.13-.35.23c-.24.16-.49.32-.74.46-.5.28-1,.54-1.52.79-.07,0-.14-.08-.07-.12.48-.3.95-.61,1.42-.93l.68-.47.36-.25a1.09,1.09,0,0,1,.37-.19A.15.15,0,0,1,364.66,97.65Z"/><path class="cls-1" d="M359.22,113.41,321.49,83.72s-38.73,49.5-39.39,49.83c0,0-26.82.32-51.4,5.21-4.38.88-27.74-10.53-53.87,11.46l3.93,40.93c41.09,5.88,98.41-3,122.84-11C326.67,172.63,359.22,113.41,359.22,113.41Z"/><path class="cls-6" d="M353.94,117.28c-8.49-7-17.05-13.92-26-20.38-2.54-1.84-5.15-3.57-7.65-5.47-.08-.06-.17.08-.09.14,2.18,1.7,4.24,3.53,6.38,5.27s4.27,3.48,6.43,5.19c4.31,3.41,8.76,6.63,13.18,9.88,2.53,1.86,5.08,3.68,7.63,5.51C353.94,117.48,354,117.34,353.94,117.28Z"/><path class="cls-6" d="M325,100.22c-6.79,9-13.62,18-20.37,27.1q-5.07,6.8-10.16,13.57c-1.5,2-3,3.84-5.48,4.54a25,25,0,0,1-3.76.62l-4.2.52c-11.15,1.37-22.3,2.77-33.46,4.12a63.61,63.61,0,0,1-8.39.61,53.22,53.22,0,0,1-8.34-1,65,65,0,0,0-15.13-.8,79.54,79.54,0,0,0-28.85,7.84c-1.15.54-2.29,1.11-3.42,1.68-.09.05,0,.19.09.14a88,88,0,0,1,29.68-8.49,64.93,64.93,0,0,1,15.26.3c2.7.39,5.37,1,8.09,1.25a42,42,0,0,0,8.39-.19c5.6-.6,11.19-1.37,16.78-2.06l16.8-2.07c2.79-.34,5.59-.63,8.36-1a10.12,10.12,0,0,0,6.07-2.69,51.17,51.17,0,0,0,4.62-6.05l5.14-7c6.71-9.07,13.35-18.19,20-27.3l2.51-3.41C325.33,100.27,325.09,100.08,325,100.22Z"/><path class="cls-9" d="M303.29,8.59c-2.11,1.41-44.21,55.78-44.5,58.86,0,.34,2.49,2,8.32,7.37.28.26.56,2.38.83,5.56,1,12,1.82,38.94,1.82,38.94l44.1-10.84-7.54-46-1.95-12s5.27-30.63,5.24-34S305.4,7.18,303.29,8.59Z"/><path class="cls-7" d="M303.29,8.59c-2.11,1.41-44.21,55.78-44.5,58.86,0,.34,2.49,2,8.32,7.37.28.26.56,2.38.83,5.56,7.22-3.48,29.38-13.72,38.38-17.87l-1.95-12s5.27-30.63,5.24-34S305.4,7.18,303.29,8.59Z"/><path class="cls-4" d="M269.15,58a10.52,10.52,0,0,1,3.06,6.5,9.82,9.82,0,0,1-.87,4.81,11.69,11.69,0,0,1-3,3.83c-.07.06-.16-.06-.09-.12a10,10,0,0,0,3-8.55,9.88,9.88,0,0,0-1.53-4.17,10.62,10.62,0,0,0-1.38-1.69,7,7,0,0,0-.82-.72c-.29-.23-.55-.36-.62-.75a.35.35,0,0,1,.29-.39C267.87,56.58,268.73,57.56,269.15,58Z"/><path class="cls-4" d="M308.43,25.28a7.43,7.43,0,0,1-3.86,2.34,19.89,19.89,0,0,1-9.48.37,21.63,21.63,0,0,1-2.23-.61,7.83,7.83,0,0,1-2.15-.95.14.14,0,0,1,.09-.25,17.57,17.57,0,0,1,2,.55c.75.19,1.51.34,2.28.46a25,25,0,0,0,4.49.27,14.57,14.57,0,0,0,8.4-2.63C308.26,24.62,308.66,25,308.43,25.28Z"/><path class="cls-4" d="M303.4,57.94c-8.87,4.29-17.76,8.51-26.59,12.89-2.5,1.24-5,2.45-7.5,3.73-.08,0-.13-.09-.05-.13a275.06,275.06,0,0,1,26.22-13.66c2.56-1.13,5.16-2.17,7.76-3.2A.2.2,0,0,1,303.4,57.94Z"/><path class="cls-4" d="M270.8,74.51a.58.58,0,0,1,.08.18,1.5,1.5,0,0,1,0,.22c0,.13,0,.27,0,.41q0,.44.06.87c0,.57,0,1.14,0,1.71,0,.08-.14.09-.14,0q-.06-.84-.15-1.68c0-.28-.06-.55-.08-.83s0-.29-.05-.43a.85.85,0,0,1,0-.42A.14.14,0,0,1,270.8,74.51Z"/><path class="cls-4" d="M275,72.54a.61.61,0,0,1,.09.18c0,.07,0,.14,0,.21s0,.28,0,.42a8.46,8.46,0,0,1,.05.87c0,.57,0,1.14,0,1.71a.08.08,0,0,1-.15,0c0-.56-.08-1.12-.14-1.69l-.09-.82c0-.14,0-.29,0-.43a.85.85,0,0,1,0-.42A.13.13,0,0,1,275,72.54Z"/><path class="cls-4" d="M279.17,70.57a.37.37,0,0,1,.08.18,1.52,1.52,0,0,1,0,.21c0,.14,0,.28,0,.41,0,.3,0,.59.05.88q0,.85,0,1.71c0,.08-.13.08-.14,0,0-.56-.08-1.13-.15-1.69,0-.27-.05-.55-.08-.82s0-.29-.05-.43a1.18,1.18,0,0,1,0-.42A.14.14,0,0,1,279.17,70.57Z"/><path class="cls-4" d="M283.36,68.59a.42.42,0,0,1,.08.18l0,.22c0,.14,0,.28,0,.41,0,.3,0,.59.05.88q0,.85,0,1.71c0,.08-.14.08-.14,0,0-.56-.09-1.13-.15-1.69,0-.27-.05-.55-.08-.82s0-.29-.05-.44a.81.81,0,0,1,0-.41A.15.15,0,0,1,283.36,68.59Z"/><path class="cls-4" d="M287.55,66.62a.58.58,0,0,1,.08.18,1.64,1.64,0,0,1,0,.22c0,.14,0,.27,0,.41s.05.58.06.88c0,.57,0,1.14,0,1.71,0,.08-.14.08-.14,0,0-.57-.09-1.13-.15-1.69,0-.27-.06-.55-.08-.82s0-.29-.05-.44a.81.81,0,0,1,0-.41A.14.14,0,0,1,287.55,66.62Z"/><path class="cls-4" d="M291.73,64.65a.44.44,0,0,1,.09.18c0,.07,0,.15,0,.22s0,.27,0,.41a8.49,8.49,0,0,1,.05.88c0,.57,0,1.14,0,1.71,0,.07-.14.08-.14,0,0-.57-.09-1.13-.15-1.69l-.09-.82c0-.15,0-.29,0-.44a.81.81,0,0,1,0-.41A.13.13,0,0,1,291.73,64.65Z"/><path class="cls-4" d="M295.92,62.68a.61.61,0,0,1,.09.18c0,.07,0,.15,0,.22s0,.27,0,.41a8.46,8.46,0,0,1,.05.87q0,.86,0,1.71a.07.07,0,0,1-.14,0c0-.57-.08-1.13-.14-1.69l-.09-.83c0-.14,0-.29,0-.43a1,1,0,0,1,0-.42C295.72,62.62,295.87,62.59,295.92,62.68Z"/><path class="cls-4" d="M300.11,60.71a.42.42,0,0,1,.08.18,1.46,1.46,0,0,1,0,.22c0,.13,0,.27,0,.41s0,.58.05.87q0,.86,0,1.71a.07.07,0,0,1-.14,0q0-.84-.15-1.68c0-.28-.05-.55-.08-.83s0-.29-.05-.43a1,1,0,0,1,0-.42A.14.14,0,0,1,300.11,60.71Z"/><path class="cls-4" d="M304.3,58.74a.58.58,0,0,1,.08.18l0,.21c0,.14,0,.28,0,.42,0,.29,0,.58.05.87q0,.86,0,1.71c0,.08-.14.08-.14,0,0-.56-.09-1.12-.15-1.69,0-.27-.05-.54-.08-.82s0-.29-.05-.43a.85.85,0,0,1,0-.42A.14.14,0,0,1,304.3,58.74Z"/><path class="cls-1" d="M308.57,75.39l-44.49,9.45s5.34,62.31,5.14,63c0,0-22.72,3-40.91,2,0,0-30.6-13.3-51.48,9.64l-3,40.26c58.19,7.06,136.1,3.79,146.43-16C331.51,162.19,308.57,75.39,308.57,75.39Z"/><path class="cls-6" d="M269.11,147.58c-4.93,0-13.21.93-18.15,1.12s-9.79.48-14.68.73c-2.81.15-5.17,0-8,.24a.09.09,0,0,0,0,.17,199.66,199.66,0,0,0,29-.57c2.82-.26,9.09-.92,11.89-1.34C269.37,147.91,269.6,147.58,269.11,147.58Z"/><path class="cls-6" d="M225.53,145.59a35.66,35.66,0,0,0-6.12-5.38c-.08-.05-.16.07-.1.13a63.34,63.34,0,0,1,5.49,5.86,54.65,54.65,0,0,1,5.09,6.37c0,.05.1,0,.07,0A38.64,38.64,0,0,0,225.53,145.59Z"/><path class="cls-6" d="M323.39,153.74c-.05-2.2-.25-4.4-.42-6.59-.33-4.35-.77-8.69-1.35-13-1.16-8.71-2.68-17.36-4.62-25.94-.55-2.39-1.11-4.79-1.72-7.17a66.49,66.49,0,0,0-2.07-7.2c-.07-.18-.41-.17-.37.06.31,2.11.88,4.2,1.34,6.28s.95,4.22,1.4,6.34q1.37,6.48,2.51,13c1.51,8.64,2.74,17.32,3.77,26,.29,2.44.53,4.89.79,7.34.13,1.23.63,11,.65,12.28a.09.09,0,0,0,.17,0C323.37,164.06,323.47,157,323.39,153.74Z"/><path class="cls-6" d="M269.11,140.81c-.1-1.21-.5-5.86-1-6.75a.06.06,0,0,0-.11,0c-.34,1,.11,5.82.23,7s.76,6.37,1,6.77a.08.08,0,0,0,.15,0A65.53,65.53,0,0,0,269.11,140.81Z"/><path class="cls-6" d="M310.12,160.69c-.16-7.84-.7-15.66-1.49-23.46-1.56-15.39-4.11-30.67-6.82-45.89-.34-1.87-.67-3.74-1-5.61,0-.1-.17,0-.16,0,2.55,15.23,5.16,30.45,6.88,45.8.86,7.62,1.52,15.26,1.84,22.93.16,3.71.26,7.44.23,11.16a42.11,42.11,0,0,1-.86,9.3,17.07,17.07,0,0,1-4.09,8.14,19.88,19.88,0,0,1-7.91,4.74,72.26,72.26,0,0,1-9.84,2.47q-5.52,1.08-11.1,1.78c-14.89,1.87-29.94,1.88-44.92,1.58-15.36-.3-30.72-.88-46.08-1-1.92,0-3.85,0-5.77-.1-.11,0-.1.16,0,.17,7.92.24,15.84.59,23.76.83s15.7.48,23.55.7c15.15.41,30.37.62,45.47-1a144.93,144.93,0,0,0,21.71-3.75,29.49,29.49,0,0,0,8.53-3.46,15.75,15.75,0,0,0,5.81-6.56C310.58,173.72,310.26,166.91,310.12,160.69Z"/><path class="cls-6" d="M308.64,82.35c-10.88,1.69-21.73,3.51-32.48,5.88-3.06.68-6.09,1.48-9.17,2.09-.1,0-.06.18,0,.16,2.72-.5,5.46-.82,8.18-1.26s5.44-.89,8.15-1.37c5.41-.95,10.77-2.14,16.14-3.29,3.07-.65,6.13-1.35,9.18-2C308.79,82.49,308.74,82.34,308.64,82.35Z"/><path class="cls-9" d="M81.2,139.15c.58-2.92,3.63-13.43,8-20,2.11-3.18,9.11-11.67,11.68-10.24s.73,4.09.73,4.09,3.5-3.14,6-1.47-.53,5.72-.53,5.72,3.82-3,6.15-1.13-1.36,5.42-1.36,5.42,3.37-2.88,4.65-.55c1.53,2.79-5.28,7.39-7.43,11-.49.82-8.71,17.42-8.71,17.42Z"/><path class="cls-1" d="M111.77,121.64c-5,3.39-6.61,5.74-9,11.2,0,.1-.22.06-.18-.06,1.85-5.55,3.43-8.79,9-11.39C111.89,121.26,112,121.48,111.77,121.64Z"/><path class="cls-1" d="M107.14,117.07c-4.89,4-6.65,6.51-9.57,12,0,.07-.17,0-.14-.07,2.41-5.66,4.06-8.86,9.47-12.19C107.15,116.7,107.36,116.88,107.14,117.07Z"/><path class="cls-1" d="M101.19,113.37c-4.46,4.19-6.51,6.88-8.65,12.61a.11.11,0,0,1-.22-.06c1.62-6.06,4.15-9.44,8.72-12.68C101.35,113,101.47,113.1,101.19,113.37Z"/><path class="cls-9" d="M99.82,153.73s5.94-4.69,8.1-7.33,6.58-15.43,3.87-16.54c-3.5-1.44-7.5,5.44-9,9.07,0,0-8.08-3.33-12,1S99.82,153.73,99.82,153.73Z"/><path class="cls-1" d="M110.7,129.78c-4.14,1-5.83,5.88-7.57,9.29a.34.34,0,0,1-.56.1c-3.48-1.17-8.74-1.8-11.85.51a.09.09,0,0,1-.12-.13c3-2.93,8.22-2.73,12-1.21,1.73-3.52,3.64-8.35,8.14-8.6C110.72,129.74,110.72,129.77,110.7,129.78Z"/><path class="cls-9" d="M128.29,154.23A106.11,106.11,0,0,1,90.58,188.7c-9.75,5.34-20-.89-21.64-4.83-3.6-8.43,8.94-41.17,13.46-47.77,1.34-2,3.36,2,9.66,7.46,3,2.61,14.43,1.94,13.62,5.16-.58,2.3-4.32,8.83-3.8,8.78,1.3-.1,10.76-7,20.78-13.43C136.46,135.19,131.51,149.51,128.29,154.23Z"/><path class="cls-1" d="M101.9,157.24c-.6.8-9.25,18.47-11.31,22.11-.06.09.09.17.14.08,2.2-3.55,4.48-7.06,6.43-10.77,1-1.83,2-3.66,2.74-5.57.37-.91.72-1.83,1.08-2.75a16.62,16.62,0,0,0,1.07-3C102.07,157.25,102,157.17,101.9,157.24Z"/><path class="cls-7" d="M102.71,155.83l22.05,8.44s6.76-9.75,9.75-15.67c3.94-7.84,2-11.14-8-7.09C119.84,144.21,102.71,155.83,102.71,155.83Z"/><path class="cls-1" d="M105.75,154.6c3.29,1,6.56,2.05,9.79,3.25q2.42.9,4.81,1.87c1.58.64,3.11,1.45,4.71,2.07a.08.08,0,0,1-.06.14c-1.56-.71-3.23-1.2-4.83-1.82l-4.81-1.84c-3.22-1.2-6.43-2.41-9.67-3.54C105.6,154.7,105.66,154.57,105.75,154.6Z"/><path class="cls-1" d="M146.12,156.38H142c-.28-2-.88-5.35-1.88-7.11a27.4,27.4,0,0,1,.56,7.11H137c-.32-2.84-1.19-8-3.42-11.61.1.39,1.94,7.34,1.5,11.61H102.81c-1.43-6.8-.32-14.21-.88-12.59a45.44,45.44,0,0,0-2,12.59H96.32a22.36,22.36,0,0,1,.29-5.14c.47-2.25-1.38,2.22-1.62,5.14H92.71s-.46-9.69,3.09-16.6c4.71-9.19,2-12.59,3.89-22.66,2.19-11.45,17.24-25.3,32.28-10.82a24,24,0,0,1,8.28,17.94c.07,8.19-1.79,12.52,1,16.72A27.3,27.3,0,0,1,146.12,156.38Z"/><path class="cls-1" d="M91.23,155a25.87,25.87,0,0,1,1-10.37,30.71,30.71,0,0,1,1.86-4.92c.36-.8.81-1.58,1.19-2.33a16.44,16.44,0,0,0,1-2.32A47.44,47.44,0,0,0,98.2,125c.21-1.72.45-3.45.8-5.16a24.05,24.05,0,0,1,1.58-5A44.62,44.62,0,0,0,99,125.07c-.13,1.73-.3,3.46-.54,5.2a28.9,28.9,0,0,1-1.23,5.14,20.41,20.41,0,0,1-1.09,2.44c-.42.78-.83,1.51-1.21,2.28a36.41,36.41,0,0,0-2,4.74,33.78,33.78,0,0,0-1.27,5c-.16.84-.26,1.7-.34,2.56S91.22,154.14,91.23,155Z"/><path class="cls-1" d="M140.25,124.24c.07,1.4,0,2.79,0,4.17s0,2.76.15,4.12a24.66,24.66,0,0,0,.69,4c.07.33.19.65.28,1l.07.24.08.2a4.37,4.37,0,0,0,.22.43c.32.58.69,1.17,1.05,1.76.72,1.19,1.42,2.41,2,3.68a26.42,26.42,0,0,1,1.53,3.93,22.58,22.58,0,0,1,.84,4.13,20.13,20.13,0,0,1,0,4.18A26.44,26.44,0,0,0,145.6,148a39,39,0,0,0-3.67-7.34c-.36-.59-.72-1.18-1.07-1.81-.08-.17-.16-.33-.24-.51s-.08-.2-.11-.29l-.07-.25a9.85,9.85,0,0,1-.28-1,22.18,22.18,0,0,1-.55-4.2,34.54,34.54,0,0,1,.14-4.2C139.9,127,140.1,125.62,140.25,124.24Z"/><path class="cls-7" d="M173.21,201.24s24.08-22.19,7.52-54.27c0,0-10.48,1.66-13.23,1.13-8.34-1.63-14.59-6.24-24.2-9.82s-16.23-.77-20.05,5.75c-1,1.63-5.63,25.41-2.21,33.84,2.69,6.64,13.59,8.56,13.59,8.56S154.87,203.27,173.21,201.24Z"/><path class="cls-9" d="M135.61,142.94c-.07,1.08-3.93,8.68-8.74,9.25-1.56.19-2.94-8.32-2.94-8.32l-.25-.6-3.42-8.47,9.23-8.34,1.34-1.13s.79,2.38,1.73,5.35c.05.14.09.28.14.43s.11.32.16.48c.15.44.3.89.44,1.34s.21.68.31,1,.2.72.31,1.08A58.65,58.65,0,0,1,135.61,142.94Z"/><path class="cls-1" d="M132.56,130.68a18.3,18.3,0,0,1-8.88,12.59l-3.42-8.47,9.23-8.34,1.34-1.13S131.62,127.71,132.56,130.68Z"/><path class="cls-9" d="M105.07,125.39c3.58,15.62,13.34,15.24,16.71,14.47,3.06-.71,13.38-3.5,11.43-19.41s-10.35-19.18-17.43-17.94S101.48,109.77,105.07,125.39Z"/><path class="cls-1" d="M107.4,122.35a8.24,8.24,0,0,0,1-.53,1.83,1.83,0,0,0,.89-.73.58.58,0,0,0-.21-.67,1.42,1.42,0,0,0-1.43.09,2.09,2.09,0,0,0-1,1.08A.61.61,0,0,0,107.4,122.35Z"/><path class="cls-1" d="M118.11,119.45a10,10,0,0,1-1.1.1,1.78,1.78,0,0,1-1.14-.12.55.55,0,0,1-.2-.66,1.41,1.41,0,0,1,1.23-.73,2.07,2.07,0,0,1,1.46.33A.6.6,0,0,1,118.11,119.45Z"/><path class="cls-1" d="M117.25,123.94s.1,0,.11.07c.26,1.06.73,2.23,1.78,2.32a0,0,0,0,1,0,.06C117.94,126.55,117.33,125,117.25,123.94Z"/><path class="cls-1" d="M117.88,122.58c1.66-.6,2.73,2.76,1.2,3.31S116.49,123.08,117.88,122.58Z"/><path class="cls-1" d="M118.6,122.55c.35.09.75.34,1.11.26s.62-.54.78-1c0,0,.05,0,.07,0a1.16,1.16,0,1,1-2.08,1C118.41,122.72,118.45,122.51,118.6,122.55Z"/><path class="cls-1" d="M110.59,125.56s-.07.08,0,.12c.37,1,.63,2.26-.19,2.92,0,0,0,.07,0,.05C111.46,128.11,111.11,126.47,110.59,125.56Z"/><path class="cls-1" d="M109.31,124.78c-1.71.43-.74,3.81.84,3.42S110.74,124.43,109.31,124.78Z"/><path class="cls-1" d="M108.66,125.21c-.21.26-.38.66-.7.77s-.74-.16-1.08-.44c0,0,0,0,0,0,.17.65.58,1.27,1.23,1.21s.86-.72.83-1.41C108.89,125.26,108.75,125.11,108.66,125.21Z"/><path class="cls-1" d="M119.3,132.08c-.16.33-.28.75-.64.92a3,3,0,0,1-1.19.15s-.06,0,0,.07a1.48,1.48,0,0,0,1.51.07,1.17,1.17,0,0,0,.47-1.2C119.41,132,119.32,132,119.3,132.08Z"/><path class="cls-1" d="M113.78,129.65a23.82,23.82,0,0,0,.49,2.36c0,.07.21.05.46,0h0a3.66,3.66,0,0,0,3-2.35.08.08,0,0,0-.14-.07,5.54,5.54,0,0,1-2.91,1.9c-.11-.19-.36-2.8-.48-2.77a6.53,6.53,0,0,0-1.55.89c-.65-3.37-.76-6.81-1.46-10.15a.1.1,0,0,0-.2,0,55.24,55.24,0,0,0,1.1,11C112.18,130.89,113.52,129.87,113.78,129.65Z"/><path class="cls-1" d="M133.28,121.48c-4,1.12-9-10.61-9.57-12.06.33.93,2.05,5.87,1.74,6.18a3.9,3.9,0,0,1-1.31.16h0a14.81,14.81,0,0,0-.71-1.74c-.12-.26.08.63.27,1.76l-.79,0a14.92,14.92,0,0,0-1.58-3.67c-.26-.43.29,1.72.42,3.72a49.66,49.66,0,0,0-10.88,1.47c-1,.27-1.83.55-2.57.83-.47-1.47-.8-3.09-.8-2.72a15.25,15.25,0,0,0,.25,2.93c-.4.15-.76.3-1.09.44-.76-2-.83-5.67-1-5.06a15.35,15.35,0,0,0-.38,5.75c-1.33.73-1.63,1.13-1.78.78a18.16,18.16,0,0,1,1.84-12.42c3.44-6.2,12.88-10.49,20.69-5.12,0,0,5.5,1.52,7.74,6.08S135.58,120.83,133.28,121.48Z"/><path class="cls-9" d="M131,122.22s1.79-5.83,4.34-5.34,2.26,8.2,0,10a2.71,2.71,0,0,1-3.9-.27Z"/><path class="cls-1" d="M135.2,119.09s.07,0,0,.06c-1.55,1.29-2,3.25-2.06,5.17a1.5,1.5,0,0,1,2-1.08c.06,0,0,.11,0,.11a1.68,1.68,0,0,0-1.57,1.12,8.54,8.54,0,0,0-.38,1.68c0,.19-.34.19-.34,0v0C132.1,123.84,132.84,120.1,135.2,119.09Z"/><path class="cls-9" d="M149.32,145.75c13.09,16.25,31,43.87,23.5,50.31-12.29,10.59-48.78,17.41-57.16,18.63-3.61.52-11.45-23-9.11-26.13s41-6.23,41.24-8.62c.12-1.35-3.31-12.83-7.44-27.13C135.58,136.33,145.57,141.1,149.32,145.75Z"/><path class="cls-9" d="M112.85,186.45s-11.11.19-18.38.65c-4,.26-11,1.32-13.85,2.87-4.32,2.32-20.92,14.79-18,18.88,2.65,3.7,15.55-8.82,15.55-8.82s-14.13,11.48-10.11,15.35,16.71-12.21,16.71-12.21-14.25,12.12-9.48,15.45c3.61,2.52,15.93-11.4,15.93-11.4s-12.18,10.51-8.58,13.26c4,3,16.15-9.1,16.15-9.1,10.33,5.46,17.48,3.83,22.43,2.06C122.43,213,112.85,186.45,112.85,186.45Z"/><path class="cls-1" d="M82.83,195.74c-1.71,1.29-3.45,2.59-5,4s-3.13,2.93-4.57,4.51a35.85,35.85,0,0,0-5,6.68c2.83-4.1,8.44-9.33,10-10.77s3.1-2.94,4.68-4.38C82.92,195.77,82.87,195.71,82.83,195.74Z"/><path class="cls-1" d="M88.12,201.39c-2.11,1.74-4.27,3.39-6.31,5.22s-3.78,3.73-5.68,5.69c-.14.16,0,.18.14,0,2-1.88,3.94-3.47,5.93-5.33s3.91-3.8,6-5.58C88.2,201.41,88.15,201.36,88.12,201.39Z"/><path class="cls-1" d="M93.53,205.41a61.6,61.6,0,0,0-9,8.73c-.14.15,0,.17.18,0,2.95-3,5.24-5.3,8.94-8.63C93.68,205.48,93.6,205.36,93.53,205.41Z"/><path class="cls-1" d="M121.12,185c-1.56,0-4.83.75-8.48,1-8.21.54-19.83.78-24,1.09-11.17.84-17.77,9.26-20.84,12.21a38.58,38.58,0,0,0-4.94,5.88c-.76,1.15-1.46,2.78-.39,4,1.3,1.5,6-.24,10.83-4.82.18-.16.06-.26-.11-.11-6.79,5.78-9.56,5.2-10.31,4.25-.48-.61-.06-1.69.34-2.52a15.6,15.6,0,0,1,2.38-3.32,68.46,68.46,0,0,1,10.25-9.44,26.73,26.73,0,0,1,13.88-5.59c3.59-.39,14.66-.55,22.94-1.17,3.62-.27,6.87-1.06,8.44-1.25A.1.1,0,0,0,121.12,185Z"/><path class="cls-7" d="M166,166.37l-23.6.45s-3.06-11.46-3.86-18c-1.05-8.71,1.94-11.15,9.94-4C153.87,149.63,166,166.37,166,166.37Z"/><path class="cls-1" d="M145.32,166.78c-.26,0-2.68-.08-2.86,0-.32-1.36-1.93-7.69-2.12-8.34,0-.1-.16-.08-.14,0,.07.38.33,1.84.64,3.48a.43.43,0,0,1,0-.07c-.16-.28-.35-.56-.53-.84s-.33-.6-.49-.9c-.05-.09-.19,0-.14.09a9.09,9.09,0,0,1,.49.86c.13.28.26.57.4.84l.45.82,0,0c.35,1.85.72,3.72.92,4.4a29.8,29.8,0,0,0,3.4-.3C145.37,166.85,145.36,166.78,145.32,166.78Z"/><path class="cls-1" d="M163.6,164.18c-3.44-.17-6.87-.29-10.32-.26-1.71,0-3.43.05-5.15.12s-3.42.31-5.14.35c-.09,0-.08.16,0,.15,1.71-.13,3.45,0,5.16-.07l5.16-.09c3.43,0,6.86-.09,10.29-.06C163.71,164.33,163.69,164.18,163.6,164.18Z"/><path class="cls-1" d="M157.22,154.58s-.07,0-.05,0a144.21,144.21,0,0,0,8.61,11.58,15.51,15.51,0,0,0-1.83.21,14.73,14.73,0,0,0,2.41,0C166.42,166.43,158.11,155.34,157.22,154.58Z"/></g></g></svg>